<mxfile host="app.diagrams.net" modified="2023-06-01T22:36:46.854Z" agent="Mozilla/5.0 (Windows NT 10.0; Win64; x64) AppleWebKit/537.36 (KHTML, like Gecko) Chrome/113.0.0.0 Safari/537.36" etag="EIJ2dX0JlE8R28k6LR6H" version="21.3.6" type="device">
  <diagram id="gQPpHqgQAzMs213Glyqh" name="Page-1">
    <mxGraphModel dx="1120" dy="452" grid="1" gridSize="10" guides="1" tooltips="1" connect="1" arrows="1" fold="1" page="1" pageScale="1.25" pageWidth="827" pageHeight="1169" math="0" shadow="0">
      <root>
        <mxCell id="0" />
        <mxCell id="1" parent="0" />
        <mxCell id="pzipJlwxu_pOsO5exUqk-1" value="" style="group" parent="1" vertex="1" connectable="0">
          <mxGeometry x="130" y="60" width="755" height="850" as="geometry" />
        </mxCell>
        <mxCell id="pzipJlwxu_pOsO5exUqk-2" value="" style="rounded=0;whiteSpace=wrap;html=1;" parent="pzipJlwxu_pOsO5exUqk-1" vertex="1">
          <mxGeometry x="245" width="510" height="850" as="geometry" />
        </mxCell>
        <mxCell id="pzipJlwxu_pOsO5exUqk-3" value="&lt;font style=&quot;font-size: 16px;&quot;&gt;&lt;u&gt;Questions Page&lt;/u&gt;&lt;/font&gt;" style="text;html=1;strokeColor=none;fillColor=none;align=center;verticalAlign=middle;whiteSpace=wrap;rounded=0;" parent="pzipJlwxu_pOsO5exUqk-1" vertex="1">
          <mxGeometry x="360" y="20" width="290" height="30" as="geometry" />
        </mxCell>
        <mxCell id="pzipJlwxu_pOsO5exUqk-4" style="edgeStyle=orthogonalEdgeStyle;rounded=0;orthogonalLoop=1;jettySize=auto;html=1;exitX=0.5;exitY=1;exitDx=0;exitDy=0;" parent="pzipJlwxu_pOsO5exUqk-1" source="pzipJlwxu_pOsO5exUqk-2" target="pzipJlwxu_pOsO5exUqk-2" edge="1">
          <mxGeometry relative="1" as="geometry" />
        </mxCell>
        <mxCell id="pzipJlwxu_pOsO5exUqk-5" value="" style="group" parent="pzipJlwxu_pOsO5exUqk-1" vertex="1" connectable="0">
          <mxGeometry y="90" width="650" height="420" as="geometry" />
        </mxCell>
        <mxCell id="pzipJlwxu_pOsO5exUqk-6" value="" style="ellipse;whiteSpace=wrap;html=1;" parent="pzipJlwxu_pOsO5exUqk-5" vertex="1">
          <mxGeometry x="360" width="290" height="110" as="geometry" />
        </mxCell>
        <mxCell id="pzipJlwxu_pOsO5exUqk-7" value="&lt;font style=&quot;font-size: 16px;&quot;&gt;Access Profile Page&lt;br&gt;&lt;/font&gt;" style="text;html=1;strokeColor=none;fillColor=none;align=center;verticalAlign=middle;whiteSpace=wrap;rounded=0;" parent="pzipJlwxu_pOsO5exUqk-5" vertex="1">
          <mxGeometry x="360" y="40" width="290" height="30" as="geometry" />
        </mxCell>
        <mxCell id="pzipJlwxu_pOsO5exUqk-8" value="" style="ellipse;whiteSpace=wrap;html=1;" parent="pzipJlwxu_pOsO5exUqk-5" vertex="1">
          <mxGeometry x="360" y="150" width="290" height="110" as="geometry" />
        </mxCell>
        <mxCell id="pzipJlwxu_pOsO5exUqk-9" value="&lt;font style=&quot;font-size: 16px;&quot;&gt;Select question to access SingleQuestion page&lt;br&gt;&lt;/font&gt;" style="text;html=1;strokeColor=none;fillColor=none;align=center;verticalAlign=middle;whiteSpace=wrap;rounded=0;" parent="pzipJlwxu_pOsO5exUqk-5" vertex="1">
          <mxGeometry x="360" y="190" width="290" height="30" as="geometry" />
        </mxCell>
        <mxCell id="pzipJlwxu_pOsO5exUqk-10" value="" style="ellipse;whiteSpace=wrap;html=1;" parent="pzipJlwxu_pOsO5exUqk-5" vertex="1">
          <mxGeometry x="360" y="310" width="290" height="110" as="geometry" />
        </mxCell>
        <mxCell id="pzipJlwxu_pOsO5exUqk-11" value="&lt;font style=&quot;font-size: 16px;&quot;&gt;View relevant Questions&lt;br&gt;&lt;/font&gt;" style="text;html=1;strokeColor=none;fillColor=none;align=center;verticalAlign=middle;whiteSpace=wrap;rounded=0;" parent="pzipJlwxu_pOsO5exUqk-5" vertex="1">
          <mxGeometry x="360" y="350" width="290" height="30" as="geometry" />
        </mxCell>
        <mxCell id="pzipJlwxu_pOsO5exUqk-12" value="User" style="shape=umlActor;verticalLabelPosition=bottom;verticalAlign=top;html=1;outlineConnect=0;fontSize=16;" parent="pzipJlwxu_pOsO5exUqk-5" vertex="1">
          <mxGeometry y="140" width="50" height="130" as="geometry" />
        </mxCell>
        <mxCell id="pzipJlwxu_pOsO5exUqk-13" value="" style="endArrow=none;html=1;rounded=0;entryX=0;entryY=0.5;entryDx=0;entryDy=0;" parent="pzipJlwxu_pOsO5exUqk-5" source="pzipJlwxu_pOsO5exUqk-12" target="pzipJlwxu_pOsO5exUqk-7" edge="1">
          <mxGeometry width="50" height="50" relative="1" as="geometry">
            <mxPoint x="440" y="110" as="sourcePoint" />
            <mxPoint x="140" y="-20" as="targetPoint" />
            <Array as="points">
              <mxPoint x="210" y="120" />
            </Array>
          </mxGeometry>
        </mxCell>
        <mxCell id="pzipJlwxu_pOsO5exUqk-14" value="" style="endArrow=none;html=1;rounded=0;entryX=0;entryY=0.5;entryDx=0;entryDy=0;" parent="pzipJlwxu_pOsO5exUqk-5" target="pzipJlwxu_pOsO5exUqk-9" edge="1">
          <mxGeometry width="50" height="50" relative="1" as="geometry">
            <mxPoint x="50" y="220" as="sourcePoint" />
            <mxPoint x="360" y="81" as="targetPoint" />
            <Array as="points" />
          </mxGeometry>
        </mxCell>
        <mxCell id="pzipJlwxu_pOsO5exUqk-15" value="" style="endArrow=none;html=1;rounded=0;entryX=0;entryY=0.5;entryDx=0;entryDy=0;" parent="pzipJlwxu_pOsO5exUqk-5" target="pzipJlwxu_pOsO5exUqk-11" edge="1">
          <mxGeometry width="50" height="50" relative="1" as="geometry">
            <mxPoint x="60" y="240" as="sourcePoint" />
            <mxPoint x="490" y="190" as="targetPoint" />
          </mxGeometry>
        </mxCell>
        <mxCell id="pzipJlwxu_pOsO5exUqk-32" value="" style="ellipse;whiteSpace=wrap;html=1;" parent="pzipJlwxu_pOsO5exUqk-1" vertex="1">
          <mxGeometry x="360" y="561" width="290" height="110" as="geometry" />
        </mxCell>
        <mxCell id="pzipJlwxu_pOsO5exUqk-33" value="&lt;font style=&quot;font-size: 16px;&quot;&gt;Access Ask Page&lt;br&gt;&lt;/font&gt;" style="text;html=1;strokeColor=none;fillColor=none;align=center;verticalAlign=middle;whiteSpace=wrap;rounded=0;" parent="pzipJlwxu_pOsO5exUqk-1" vertex="1">
          <mxGeometry x="360" y="601" width="290" height="30" as="geometry" />
        </mxCell>
        <mxCell id="4clXYKeSR6vQJJbRll-e-1" value="" style="ellipse;whiteSpace=wrap;html=1;" vertex="1" parent="pzipJlwxu_pOsO5exUqk-1">
          <mxGeometry x="370" y="710" width="290" height="110" as="geometry" />
        </mxCell>
        <mxCell id="4clXYKeSR6vQJJbRll-e-2" value="&lt;font style=&quot;font-size: 16px;&quot;&gt;Access Community Page&lt;br&gt;&lt;/font&gt;" style="text;html=1;strokeColor=none;fillColor=none;align=center;verticalAlign=middle;whiteSpace=wrap;rounded=0;" vertex="1" parent="pzipJlwxu_pOsO5exUqk-1">
          <mxGeometry x="360" y="750" width="290" height="30" as="geometry" />
        </mxCell>
        <mxCell id="pzipJlwxu_pOsO5exUqk-35" value="" style="endArrow=none;html=1;rounded=0;entryX=0;entryY=0.5;entryDx=0;entryDy=0;" parent="1" target="pzipJlwxu_pOsO5exUqk-33" edge="1">
          <mxGeometry width="50" height="50" relative="1" as="geometry">
            <mxPoint x="190" y="420" as="sourcePoint" />
            <mxPoint x="500" y="525" as="targetPoint" />
            <Array as="points" />
          </mxGeometry>
        </mxCell>
        <mxCell id="4clXYKeSR6vQJJbRll-e-3" value="" style="endArrow=none;html=1;rounded=0;" edge="1" parent="1">
          <mxGeometry width="50" height="50" relative="1" as="geometry">
            <mxPoint x="180" y="440" as="sourcePoint" />
            <mxPoint x="500" y="825" as="targetPoint" />
            <Array as="points" />
          </mxGeometry>
        </mxCell>
      </root>
    </mxGraphModel>
  </diagram>
</mxfile>
